<svg width="49" height="13" fill="none" xmlns="http://www.w3.org/2000/svg"><path d="M5.597 6.256c.406.064.774.23 1.104.496.342.267.608.597.8.992.203.395.304.816.304 1.264a2.83 2.83 0 01-.432 1.536c-.288.448-.71.805-1.264 1.072-.544.256-1.19.384-1.936.384H.013V.848h4c.758 0 1.403.128 1.936.384.534.245.934.581 1.2 1.008.267.427.4.907.4 1.44 0 .661-.181 1.21-.544 1.648-.352.427-.821.736-1.408.928zM1.47 5.664h2.448c.683 0 1.21-.16 1.584-.48.374-.32.56-.763.56-1.328 0-.565-.186-1.008-.56-1.328-.373-.32-.912-.48-1.616-.48H1.47v3.616zM4.045 10.8c.726 0 1.29-.17 1.696-.512.406-.341.608-.816.608-1.424 0-.619-.213-1.104-.64-1.456-.426-.363-.997-.544-1.712-.544H1.47V10.8h2.576zm13.557-7.568V12h-1.456v-1.296c-.278.448-.667.8-1.168 1.056a3.598 3.598 0 01-1.632.368c-.683 0-1.296-.139-1.84-.416a3.184 3.184 0 01-1.296-1.28c-.31-.565-.464-1.253-.464-2.064V3.232h1.44v4.944c0 .864.218 1.53.656 2 .437.459 1.034.688 1.792.688.778 0 1.392-.24 1.84-.72.448-.48.672-1.179.672-2.096V3.232h1.456zM21.516.16V12H20.06V.16h1.456zm8.066 6.096c.405.064.773.23 1.104.496.341.267.608.597.8.992.202.395.304.816.304 1.264a2.83 2.83 0 01-.432 1.536c-.288.448-.71.805-1.264 1.072-.544.256-1.19.384-1.936.384h-4.16V.848h4c.757 0 1.402.128 1.936.384.533.245.933.581 1.2 1.008.266.427.4.907.4 1.44 0 .661-.182 1.21-.544 1.648-.352.427-.822.736-1.408.928zm-4.128-.592h2.448c.682 0 1.21-.16 1.584-.48.373-.32.56-.763.56-1.328 0-.565-.187-1.008-.56-1.328-.374-.32-.912-.48-1.616-.48h-2.416v3.616zM28.03 10.8c.725 0 1.29-.17 1.696-.512.405-.341.608-.816.608-1.424 0-.619-.214-1.104-.64-1.456-.427-.363-.998-.544-1.712-.544h-2.528V10.8h2.576zm5.236-3.216c0-.896.181-1.68.544-2.352a3.952 3.952 0 011.488-1.584 4.15 4.15 0 012.128-.56c.768 0 1.435.165 2 .496.566.33.987.747 1.264 1.248v-1.6h1.472V12H40.69v-1.632c-.288.512-.72.939-1.296 1.28-.565.33-1.227.496-1.984.496a3.975 3.975 0 01-2.112-.576 4.04 4.04 0 01-1.488-1.616c-.363-.693-.544-1.483-.544-2.368zm7.424.016c0-.661-.133-1.237-.4-1.728a2.753 2.753 0 00-1.088-1.12 2.854 2.854 0 00-1.488-.4c-.544 0-1.04.128-1.488.384-.448.256-.805.63-1.072 1.12-.267.49-.4 1.067-.4 1.728 0 .672.134 1.259.4 1.76a2.9 2.9 0 001.072 1.136c.448.256.944.384 1.488.384s1.04-.128 1.488-.384a2.863 2.863 0 001.088-1.136c.267-.501.4-1.083.4-1.744zm5.71-3.168V9.6c0 .427.09.73.272.912.181.17.496.256.944.256h1.072V12h-1.312c-.811 0-1.419-.187-1.824-.56-.406-.373-.608-.987-.608-1.84V4.432h-1.136v-1.2h1.136V1.024H46.4v2.208h2.288v1.2H46.4z" fill="#fff"/></svg>