<svg width="128" height="48" fill="none" xmlns="http://www.w3.org/2000/svg"><path d="M15.597 12.256c.406.064.774.23 1.104.496.342.267.608.597.8.992.203.395.304.816.304 1.264a2.83 2.83 0 01-.432 1.536c-.288.448-.71.805-1.264 1.072-.544.256-1.19.384-1.936.384h-4.16V6.848h4c.758 0 1.403.128 1.936.384.534.245.934.581 1.2 1.008.267.427.4.907.4 1.44 0 .661-.181 1.21-.544 1.648-.352.427-.821.736-1.408.928zm-4.128-.592h2.448c.683 0 1.21-.16 1.584-.48.374-.32.56-.763.56-1.328 0-.565-.186-1.008-.56-1.328-.373-.32-.912-.48-1.616-.48H11.47v3.616zm2.576 5.136c.726 0 1.29-.17 1.696-.512.406-.341.608-.816.608-1.424 0-.619-.213-1.104-.64-1.456-.426-.363-.997-.544-1.712-.544H11.47V16.8h2.576zm13.557-7.568V18h-1.456v-1.296c-.278.448-.667.8-1.168 1.056a3.598 3.598 0 01-1.632.368c-.683 0-1.296-.139-1.84-.416a3.184 3.184 0 01-1.296-1.28c-.31-.565-.464-1.253-.464-2.064V9.232h1.44v4.944c0 .864.218 1.53.656 2 .437.459 1.034.688 1.792.688.778 0 1.392-.24 1.84-.72.448-.48.672-1.179.672-2.096V9.232h1.456zm3.914-3.072V18H30.06V6.16h1.456zm8.066 6.096c.405.064.773.23 1.104.496.341.267.608.597.8.992.202.395.304.816.304 1.264a2.83 2.83 0 01-.432 1.536c-.288.448-.71.805-1.264 1.072-.544.256-1.19.384-1.936.384h-4.16V6.848h4c.757 0 1.402.128 1.936.384.533.245.933.581 1.2 1.008.266.427.4.907.4 1.44 0 .661-.182 1.21-.544 1.648-.352.427-.822.736-1.408.928zm-4.128-.592h2.448c.682 0 1.21-.16 1.584-.48.373-.32.56-.763.56-1.328 0-.565-.187-1.008-.56-1.328-.374-.32-.912-.48-1.616-.48h-2.416v3.616zM38.03 16.8c.725 0 1.29-.17 1.696-.512.405-.341.608-.816.608-1.424 0-.619-.214-1.104-.64-1.456-.427-.363-.998-.544-1.712-.544h-2.528V16.8h2.576zm5.236-3.216c0-.896.181-1.68.544-2.352a3.952 3.952 0 011.488-1.584 4.15 4.15 0 012.128-.56c.768 0 1.435.165 2 .496.566.33.987.747 1.264 1.248v-1.6h1.472V18H50.69v-1.632c-.288.512-.72.939-1.296 1.28-.565.33-1.227.496-1.984.496a3.975 3.975 0 01-2.112-.576 4.04 4.04 0 01-1.488-1.616c-.363-.693-.544-1.483-.544-2.368zm7.424.016c0-.661-.133-1.237-.4-1.728a2.753 2.753 0 00-1.088-1.12 2.854 2.854 0 00-1.488-.4c-.544 0-1.04.128-1.488.384-.448.256-.805.63-1.072 1.12-.267.49-.4 1.067-.4 1.728 0 .672.134 1.259.4 1.76a2.9 2.9 0 001.072 1.136c.448.256.944.384 1.488.384s1.04-.128 1.488-.384a2.863 2.863 0 001.088-1.136c.267-.501.4-1.083.4-1.744zm5.709-3.168V15.6c0 .427.09.73.272.912.181.17.496.256.944.256h1.072V18h-1.312c-.811 0-1.419-.187-1.824-.56-.406-.373-.608-.987-.608-1.84v-5.168h-1.136v-1.2h1.136V7.024h1.456v2.208h2.288v1.2h-2.288zm15.016 20.416c1.216 0 2.267.23 3.152.688.896.448 1.579 1.093 2.048 1.936.48.843.72 1.835.72 2.976s-.24 2.133-.72 2.976c-.47.832-1.152 1.472-2.048 1.92-.885.437-1.936.656-3.152.656h-3.472V30.848h3.472zm0 9.952c1.44 0 2.539-.379 3.296-1.136.757-.768 1.136-1.84 1.136-3.216 0-1.387-.384-2.47-1.152-3.248-.757-.779-1.85-1.168-3.28-1.168h-2.016V40.8h2.016zm15.84-3.52c0 .277-.016.57-.048.88H80.2c.054.864.347 1.541.88 2.032.544.48 1.2.72 1.968.72.63 0 1.152-.144 1.568-.432.427-.299.726-.693.896-1.184h1.568a3.807 3.807 0 01-1.408 2.064c-.704.523-1.578.784-2.624.784-.832 0-1.578-.187-2.24-.56A3.993 3.993 0 0179.271 40c-.373-.693-.56-1.493-.56-2.4 0-.907.182-1.701.544-2.384a3.782 3.782 0 011.52-1.568c.662-.373 1.42-.56 2.272-.56.832 0 1.568.181 2.208.544a3.7 3.7 0 011.472 1.504c.352.63.528 1.344.528 2.144zm-1.504-.304c0-.555-.122-1.03-.368-1.424a2.316 2.316 0 00-1.008-.912 3.006 3.006 0 00-1.392-.32c-.736 0-1.365.235-1.888.704-.512.47-.805 1.12-.88 1.952h5.536zm6.53 5.168c-.672 0-1.274-.112-1.808-.336-.533-.235-.954-.555-1.264-.96a2.596 2.596 0 01-.512-1.424h1.504c.043.437.246.795.608 1.072.374.277.859.416 1.456.416.555 0 .992-.123 1.312-.368.32-.245.48-.555.48-.928a.897.897 0 00-.512-.848c-.341-.192-.869-.379-1.584-.56-.65-.17-1.184-.341-1.6-.512a3.039 3.039 0 01-1.056-.784c-.288-.352-.432-.81-.432-1.376 0-.448.134-.859.4-1.232.267-.373.646-.667 1.136-.88.491-.224 1.051-.336 1.68-.336.971 0 1.755.245 2.352.736.598.49.918 1.163.96 2.016h-1.456a1.494 1.494 0 00-.56-1.104c-.33-.277-.778-.416-1.344-.416-.522 0-.938.112-1.248.336-.309.224-.464.517-.464.88 0 .288.091.528.272.72.192.181.427.33.704.448.288.107.683.23 1.184.368.63.17 1.142.341 1.536.512.395.16.731.405 1.008.736.288.33.438.763.448 1.296 0 .48-.133.912-.4 1.296-.266.384-.645.688-1.136.912-.48.213-1.034.32-1.664.32zm6.008-10.336a.958.958 0 01-.704-.288.958.958 0 01-.288-.704c0-.277.096-.512.288-.704a.958.958 0 01.704-.288.89.89 0 01.672.288.958.958 0 01.288.704.958.958 0 01-.288.704.887.887 0 01-.672.288zm.704 1.424V42h-1.456v-8.768h1.456zm6.097-.144c.758 0 1.419.165 1.984.496.576.33 1.003.747 1.28 1.248v-1.6h1.472v8.96c0 .8-.17 1.51-.512 2.128a3.621 3.621 0 01-1.472 1.472c-.629.352-1.365.528-2.208.528-1.152 0-2.112-.272-2.88-.816-.768-.544-1.221-1.285-1.36-2.224h1.44c.16.533.491.96.992 1.28.502.33 1.104.496 1.808.496.8 0 1.451-.25 1.952-.752.512-.501.768-1.205.768-2.112v-1.84c-.288.512-.714.939-1.28 1.28-.565.341-1.226.512-1.984.512a4.059 4.059 0 01-2.128-.576 4.045 4.045 0 01-1.488-1.616c-.362-.693-.544-1.483-.544-2.368 0-.896.182-1.68.544-2.352a3.956 3.956 0 011.488-1.584 4.15 4.15 0 012.128-.56zm3.264 4.512c0-.661-.133-1.237-.4-1.728a2.747 2.747 0 00-1.088-1.12 2.854 2.854 0 00-1.488-.4c-.544 0-1.04.128-1.488.384-.448.256-.805.63-1.072 1.12-.266.49-.4 1.067-.4 1.728 0 .672.134 1.259.4 1.76.267.49.624.87 1.072 1.136.448.256.944.384 1.488.384s1.04-.128 1.488-.384a2.857 2.857 0 001.088-1.136c.267-.501.4-1.083.4-1.744zm8.205-4.528c1.066 0 1.93.325 2.592.976.661.64.992 1.568.992 2.784V42h-1.44v-4.96c0-.875-.219-1.541-.656-2-.438-.47-1.035-.704-1.792-.704-.768 0-1.382.24-1.84.72-.448.48-.672 1.179-.672 2.096V42h-1.456v-8.768h1.456v1.248a2.9 2.9 0 011.168-1.04 3.696 3.696 0 011.648-.368z" fill="#fff"/><path d="M64 4v40" stroke="#F4F4F4"/><g filter="url(#filter0_d_14_2)"><path d="M4 25h120" stroke="#F4F4F4"/></g><path fill="#F4F4F4" d="M64 34H34v-9h30zm-30 9H4v-9h30z"/><path d="M64 24L84 4l20 20 20-20" stroke="#F4F4F4" stroke-width="2"/><defs><filter id="filter0_d_14_2" x="0" y="24.5" width="128" height="9" filterUnits="userSpaceOnUse" color-interpolation-filters="sRGB"><feFlood flood-opacity="0" result="BackgroundImageFix"/><feColorMatrix in="SourceAlpha" values="0 0 0 0 0 0 0 0 0 0 0 0 0 0 0 0 0 0 127 0" result="hardAlpha"/><feOffset dy="4"/><feGaussianBlur stdDeviation="2"/><feComposite in2="hardAlpha" operator="out"/><feColorMatrix values="0 0 0 0 0 0 0 0 0 0 0 0 0 0 0 0 0 0 0.25 0"/><feBlend in2="BackgroundImageFix" result="effect1_dropShadow_14_2"/><feBlend in="SourceGraphic" in2="effect1_dropShadow_14_2" result="shape"/></filter></defs></svg>